<svg width="47" height="45" viewBox="0 0 47 45" fill="none" xmlns="http://www.w3.org/2000/svg">
<ellipse cx="23.2012" cy="22.5" rx="22.8144" ry="22.5" fill="#58BEBF" fill-opacity="0.2"/>
<path fill-rule="evenodd" clip-rule="evenodd" d="M20.2631 32.7964V28.5415H26.6233V32.7964H31.4165V9.87805H15.4692V32.7964H20.2631ZM26.6233 11.9835H29.3059V14.6584H26.6233V11.9835ZM29.3059 15.8722H26.6233V18.5479H29.3059V15.8722ZM26.6233 19.7616H29.3059V22.4359H26.6233V19.7616ZM29.3059 23.6496H26.6233V26.3261H29.3059V23.6496ZM22.1023 11.9835H24.7856V14.6584H22.1023V11.9835ZM24.7856 15.8722H22.1023V18.5479H24.7856V15.8722ZM22.1023 19.7616H24.7856V22.4359H22.1023V19.7616ZM24.7856 23.6496H22.1023V26.3261H24.7856V23.6496ZM17.5813 11.9835H20.2639V14.6584H17.5813V11.9835ZM20.2639 15.8722H17.5813V18.5479H20.2639V15.8722ZM17.5813 19.7616H20.2639V22.4359H17.5813V19.7616ZM20.2639 23.6496H17.5813V26.3261H20.2639V23.6496Z" fill="#58BEBF"/>
</svg>
